  <svg
      xmlns="http://www.w3.org/2000/svg"
      width="80"
      viewBox="0 0 342.84 86.08"
    >
      <g>
        <polygon
          fill="black"
          points="123.91 0 108.33 0 108.33 84.72 160.19 84.72 160.19 71.07 123.91 71.07 123.91 0"
        />
        <path
          fill="black"
          d="M203.63,59.13a14.68,14.68,0,0,1-1.6,7.05,11.57,11.57,0,0,1-4.43,4.61,12.7,12.7,0,0,1-6.48,1.65,13,13,0,0,1-6.54-1.65,11.24,11.24,0,0,1-4.44-4.55,14.29,14.29,0,0,1-1.53-6.77V22.86h-15V60.72A29.49,29.49,0,0,0,166.44,74a21.27,21.27,0,0,0,8.07,8.87A23.64,23.64,0,0,0,187,86.08a22.51,22.51,0,0,0,11.49-2.84,15.63,15.63,0,0,0,5.91-6.08v7.56h14.1V22.86H203.63Z"
        />
        <polygon
          fill="black"
          points="283.68 22.86 266.28 22.86 253.26 42.08 240.24 22.86 222.73 22.86 244.45 53.67 222.84 84.72 240.35 84.72 253.26 65.49 266.17 84.72 283.57 84.72 262.07 53.67 283.68 22.86"
        />
        <path
          fill="black"
          d="M340.79,40.09a29.26,29.26,0,0,0-5.91-9.61,27.28,27.28,0,0,0-9.38-6.6,32,32,0,0,0-12.79-2.39A29.74,29.74,0,0,0,297,25.7a31,31,0,0,0-11,11.43,32.93,32.93,0,0,0-4.09,16.54,33.93,33.93,0,0,0,4,16.38,29.88,29.88,0,0,0,11.2,11.71,32,32,0,0,0,16.77,4.32,33.82,33.82,0,0,0,11.6-1.93,28.28,28.28,0,0,0,9.21-5.35A21.13,21.13,0,0,0,340.34,71l-12.06-5.91a15.64,15.64,0,0,1-5.62,5.8A16.56,16.56,0,0,1,314,73a17,17,0,0,1-9-2.39A14.94,14.94,0,0,1,299,63.85a18.12,18.12,0,0,1-1.5-5.74H342a13.46,13.46,0,0,0,.63-3c.11-1.1.17-2.22.17-3.36A32.47,32.47,0,0,0,340.79,40.09ZM304.4,36.16a14.84,14.84,0,0,1,8.31-2.39,14.38,14.38,0,0,1,8.35,2.39,13.34,13.34,0,0,1,5,6.48,14.1,14.1,0,0,1,.83,4H297.8A17.74,17.74,0,0,1,298.89,43,14.84,14.84,0,0,1,304.4,36.16Z"
        />
        <path
          fill="black"
          d="M28.24,56.48h0V0H0V28.24L28.24,56.48H0A28.24,28.24,0,0,0,28.24,84.72H56.48V56.48Z"
        />
      </g>
    </svg>
