<svg width="660" height="223" viewBox="0 0 660 223" fill="none" xmlns="http://www.w3.org/2000/svg">
<path d="M0.519886 219V0.818175H40.044V185.868H136.138V219H0.519886ZM273.034 150.179V55.3636H311.599V219H274.206V189.916H272.501C268.808 199.078 262.736 206.571 254.284 212.395C245.903 218.219 235.57 221.131 223.283 221.131C212.558 221.131 203.077 218.751 194.838 213.993C186.67 209.163 180.278 202.168 175.662 193.006C171.045 183.773 168.737 172.622 168.737 159.554V55.3636H207.303V153.588C207.303 163.957 210.143 172.196 215.825 178.304C221.507 184.412 228.964 187.466 238.197 187.466C243.879 187.466 249.384 186.081 254.71 183.311C260.037 180.541 264.405 176.422 267.814 170.953C271.294 165.413 273.034 158.489 273.034 150.179ZM382.791 55.3636L415.816 115.768L449.375 55.3636H490.177L440.852 137.182L491.029 219H450.44L415.816 160.087L381.512 219H340.603L390.461 137.182L341.882 55.3636H382.791ZM586.298 222.196C569.891 222.196 555.722 218.787 543.79 211.969C531.93 205.08 522.803 195.349 516.411 182.778C510.019 170.136 506.823 155.257 506.823 138.141C506.823 121.308 510.019 106.536 516.411 93.8224C522.874 81.0383 531.894 71.0952 543.471 63.9929C555.048 56.8196 568.648 53.233 584.273 53.233C594.359 53.233 603.876 54.8665 612.825 58.1335C621.844 61.3295 629.799 66.3011 636.688 73.0483C643.648 79.7955 649.117 88.3892 653.094 98.8295C657.072 109.199 659.06 121.557 659.06 135.903V147.729H524.934V121.734H622.093C622.022 114.348 620.424 107.778 617.299 102.026C614.174 96.2017 609.806 91.6207 604.195 88.2827C598.656 84.9446 592.192 83.2756 584.806 83.2756C576.923 83.2756 569.998 85.1932 564.032 89.0284C558.066 92.7926 553.414 97.7642 550.076 103.943C546.809 110.051 545.14 116.763 545.069 124.078V146.77C545.069 156.287 546.809 164.455 550.289 171.273C553.769 178.02 558.634 183.205 564.884 186.827C571.134 190.378 578.45 192.153 586.83 192.153C592.441 192.153 597.519 191.372 602.065 189.81C606.61 188.176 610.552 185.797 613.89 182.672C617.228 179.547 619.749 175.676 621.454 171.06L657.462 175.108C655.19 184.625 650.857 192.935 644.465 200.037C638.144 207.068 630.048 212.537 620.175 216.443C610.303 220.278 599.011 222.196 586.298 222.196Z" fill="#D9D9D9"/>
</svg>
